# xmcd CD database file
#
# Track frame offsets:
#	150
#	13207
#	28905
#	42590
#	64080
#	77787
#	96415
#	113815
#	129637
#	150305
#	163252
#	179872
#
# Disc length: 2574 seconds
#
# Revision: 0
# Processed by: cddbd v1.5.2PL0 Copyright (c) Steve Scherf et al.
# Submitted via: CDex 1.51
#
DISCID=aa0a0c0c
DTITLE=Julie Ingram - You
DYEAR=2004
DGENRE=Country
TTITLE0=Be Proud of Your Flag
TTITLE1=Strength of My Mind
TTITLE2=You
TTITLE3=Champion
TTITLE4=You Never Know
TTITLE5=O.K. Baby
TTITLE6=110%
TTITLE7=Messages from a War
TTITLE8=Love Ya Sis
TTITLE9=Somewhere South of Baghdad
TTITLE10=Happy Valentines
TTITLE11=You (acoustic solo)
EXTD=YEAR: 2004
EXTT0=
EXTT1=
EXTT2=
EXTT3=
EXTT4=
EXTT5=
EXTT6=
EXTT7=
EXTT8=
EXTT9=
EXTT10=
EXTT11=
PLAYORDER=
